<?xml version="1.0" encoding="UTF-8"?>
<!DOCTYPE svg PUBLIC "-//W3C//DTD SVG 1.1//EN" "http://www.w3.org/Graphics/SVG/1.1/DTD/svg11.dtd">
<svg version="1.1" xmlns="http://www.w3.org/2000/svg" xmlns:xlink="http://www.w3.org/1999/xlink" x="0" y="0" width="200" height="200" viewBox="0, 0, 1000, 1000">
  <g id="Background">
    <rect x="0" y="0" width="1000" height="1000" fill="#000000" fill-opacity="0"/>
  </g>
  <g id="Layer_1">
    <path d="M0,877.71 L680.547,877.71 L680.547,1000.5 L0,1000.5 L0,877.71 z" fill="#0088FF"/>
    <path d="M178.128,327.177 L178.128,137.827 L344.802,137.827 Q368.612,137.827 390.722,141.796 Q412.832,145.764 429.839,155.969 Q446.846,166.173 457.051,184.315 Q467.255,202.456 467.255,230.802 Q467.255,281.824 436.642,304.501 Q406.029,327.177 358.408,327.177 z M0.117,-0.5 L0.117,809.056 L392.423,809.056 Q446.846,809.056 498.436,795.45 Q550.025,781.844 590.276,753.498 Q630.527,725.152 654.338,680.366 Q678.148,635.58 678.148,574.353 Q678.148,498.386 641.299,444.529 Q604.449,390.672 529.616,369.129 Q584.04,343.051 611.819,302.233 Q639.598,261.415 639.598,200.188 Q639.598,143.497 620.89,104.946 Q602.181,66.396 568.166,43.152 Q534.152,19.909 486.531,9.704 Q438.91,-0.5 381.084,-0.5 z M178.128,670.728 L178.128,448.497 L372.014,448.497 Q429.839,448.497 464.988,475.142 Q500.137,501.787 500.137,564.148 Q500.137,595.895 489.365,616.304 Q478.594,636.713 460.452,648.619 Q442.311,660.524 418.501,665.626 Q394.69,670.728 368.612,670.728 z" fill="#0088FF"/>
  </g>
</svg>
